<svg xmlns="http://www.w3.org/2000/svg" viewBox="0 0 512 512"><circle cx="348.31" cy="218.5" r="88.24" fill="#f5bd02"/><path fill="navy" d="M348.31,321.74c-56.92,0-103.24-46.31-103.24-103.24s46.31-103.24,103.24-103.24,103.24,46.31,103.24,103.24-46.31,103.24-103.24,103.24ZM348.31,145.26c-40.38,0-73.24,32.85-73.24,73.24s32.85,73.24,73.24,73.24,73.24-32.85,73.24-73.24-32.85-73.24-73.24-73.24Z"/><rect width="45.38" height="30" x="325.62" y="72.81" fill="navy" rx="15" ry="15" transform="rotate(-90 348.31 87.81)"/><rect width="45.38" height="30" x="418.03" y="111.09" fill="navy" rx="15" ry="15" transform="rotate(-45 440.726 126.085)"/><rect width="45.38" height="30" x="456.31" y="203.5" fill="navy" rx="15" ry="15"/><rect width="45.38" height="30" x="233.21" y="111.09" fill="navy" rx="15" ry="15" transform="rotate(-135 255.899 126.086)"/><path fill="#fff" d="M411.47,261.92h-34.12c-15.26,0-29.08-9.19-34.84-23.32-19.67-48.26-67.06-82.27-122.39-82.27s-106.02,36.43-124.35,87.38c-3.86,10.72-12.32,19.15-23.09,22.88-33.26,11.53-57.14,43.13-57.14,80.31h0c0,46.93,38.05,84.98,84.98,84.98h310.94c46.93,0,84.98-38.05,84.98-84.98h0c0-46.94-38.05-84.98-84.98-84.98Z"/><path fill="navy" d="M410.36,246.91h-33.02c-9.26,0-17.48-5.48-20.95-13.98-10.91-26.76-29.31-49.56-53.23-65.94-24.51-16.79-53.23-25.66-83.04-25.66-18.88,0-37.18,3.64-54.1,10.36-8.47,3.36-11.93,13.51-7.38,21.41h0c3.72,6.45,11.6,9.16,18.52,6.42,13.43-5.31,27.96-8.19,42.95-8.19,47.84,0,90.43,28.62,108.49,72.93,8.09,19.84,27.22,32.65,48.73,32.65h33.23c38.53,0,70.51,30.77,70.88,69.3.38,38.9-31.16,70.67-69.98,70.67H101.56c-37.29,0-68.81-28.78-70.9-66-1.77-31.4,17.55-59.93,46.94-70.12,15.09-5.23,26.86-16.88,32.29-31.97,5.25-14.6,13.24-27.69,23.27-38.76,4.41-4.87,5.26-11.98,1.97-17.67h0c-5.09-8.82-17.28-10.09-24.13-2.54-12.65,13.94-22.73,30.43-29.35,48.81-2.34,6.51-7.4,11.54-13.88,13.79C26.53,266.71-.84,306.3.6,350.21c1.77,54.1,46.94,96.67,101.06,96.67h309.81c55.33,0,100.3-45.17,99.98-100.57s-45.91-99.4-101.09-99.4Z"/><path fill="#bbd7ff" d="M109.23,392.41h2.65c8.28,0,15-6.72,15-15,0-8.28-6.72-15-15-15h-2.65c-9.54,0-17.29-7.76-17.29-17.29v-2.65c0-8.28-6.72-15-15-15-8.28,0-15,6.72-15,15v2.65c0,26.08,21.22,47.29,47.29,47.29Z"/></svg>