<?xml version="1.0" encoding="UTF-8" standalone="no"?>
<!-- Created with Inkscape (http://www.inkscape.org/) -->

<svg
   version="1.1"
   id="svg1"
   width="880"
   height="880"
   viewBox="0 0 880 880"
   sodipodi:docname="man-is-holding-a-magnifyer.svg"
   inkscape:version="1.3.2 (091e20e, 2023-11-25, custom)"
   xmlns:inkscape="http://www.inkscape.org/namespaces/inkscape"
   xmlns:sodipodi="http://sodipodi.sourceforge.net/DTD/sodipodi-0.dtd"
   xmlns="http://www.w3.org/2000/svg"
   xmlns:svg="http://www.w3.org/2000/svg">
  <defs
     id="defs1">
    <clipPath
       clipPathUnits="userSpaceOnUse"
       id="clipPath3">
      <path
         d="M 0,660 H 660 V 0 H 0 Z"
         transform="translate(-342.76371,-70.418904)"
         id="path3" />
    </clipPath>
    <clipPath
       clipPathUnits="userSpaceOnUse"
       id="clipPath5">
      <path
         d="M 0,660 H 660 V 0 H 0 Z"
         transform="translate(-428.33011,-270.42091)"
         id="path5" />
    </clipPath>
    <clipPath
       clipPathUnits="userSpaceOnUse"
       id="clipPath7">
      <path
         d="M 0,660 H 660 V 0 H 0 Z"
         transform="translate(-390.33501,-149.7822)"
         id="path7" />
    </clipPath>
    <clipPath
       clipPathUnits="userSpaceOnUse"
       id="clipPath9">
      <path
         d="M 0,660 H 660 V 0 H 0 Z"
         transform="translate(-297.1621,-457.60841)"
         id="path9" />
    </clipPath>
    <clipPath
       clipPathUnits="userSpaceOnUse"
       id="clipPath11">
      <path
         d="M 0,660 H 660 V 0 H 0 Z"
         transform="translate(-324.24901,-282.8662)"
         id="path11" />
    </clipPath>
    <clipPath
       clipPathUnits="userSpaceOnUse"
       id="clipPath13">
      <path
         d="M 0,660 H 660 V 0 H 0 Z"
         transform="translate(-355.51861,-235.77931)"
         id="path13" />
    </clipPath>
    <clipPath
       clipPathUnits="userSpaceOnUse"
       id="clipPath15">
      <path
         d="M 0,660 H 660 V 0 H 0 Z"
         transform="translate(-332.29391,-309.53711)"
         id="path15" />
    </clipPath>
    <clipPath
       clipPathUnits="userSpaceOnUse"
       id="clipPath17">
      <path
         d="M 0,660 H 660 V 0 H 0 Z"
         transform="translate(-379.16111,-272.97361)"
         id="path17" />
    </clipPath>
    <clipPath
       clipPathUnits="userSpaceOnUse"
       id="clipPath19">
      <path
         d="M 0,660 H 660 V 0 H 0 Z"
         transform="translate(-392.41601,-302.19341)"
         id="path19" />
    </clipPath>
    <clipPath
       clipPathUnits="userSpaceOnUse"
       id="clipPath21">
      <path
         d="M 0,660 H 660 V 0 H 0 Z"
         transform="translate(-363.00681,-370.88481)"
         id="path21" />
    </clipPath>
    <clipPath
       clipPathUnits="userSpaceOnUse"
       id="clipPath23">
      <path
         d="M 0,660 H 660 V 0 H 0 Z"
         transform="translate(-354.53811,-427.33351)"
         id="path23" />
    </clipPath>
    <clipPath
       clipPathUnits="userSpaceOnUse"
       id="clipPath25">
      <path
         d="M 0,660 H 660 V 0 H 0 Z"
         transform="translate(-382.53031,-413.74511)"
         id="path25" />
    </clipPath>
    <clipPath
       clipPathUnits="userSpaceOnUse"
       id="clipPath27">
      <path
         d="M 0,660 H 660 V 0 H 0 Z"
         transform="translate(-322.17581,-549.16111)"
         id="path27" />
    </clipPath>
    <clipPath
       clipPathUnits="userSpaceOnUse"
       id="clipPath29">
      <path
         d="M 0,660 H 660 V 0 H 0 Z"
         transform="translate(-412.42681,-635.37742)"
         id="path29" />
    </clipPath>
    <clipPath
       clipPathUnits="userSpaceOnUse"
       id="clipPath31">
      <path
         d="M 0,660 H 660 V 0 H 0 Z"
         transform="translate(-400.99711,-623.20512)"
         id="path31" />
    </clipPath>
    <clipPath
       clipPathUnits="userSpaceOnUse"
       id="clipPath33">
      <path
         d="M 0,660 H 660 V 0 H 0 Z"
         transform="translate(-317.17381,-533.93851)"
         id="path33" />
    </clipPath>
    <clipPath
       clipPathUnits="userSpaceOnUse"
       id="clipPath35">
      <path
         d="M 0,660 H 660 V 0 H 0 Z"
         transform="translate(-295.55421,-487.57861)"
         id="path35" />
    </clipPath>
    <clipPath
       clipPathUnits="userSpaceOnUse"
       id="clipPath37">
      <path
         d="M 0,660 H 660 V 0 H 0 Z"
         transform="translate(-388.45611,-626.49072)"
         id="path37" />
    </clipPath>
  </defs>
  <sodipodi:namedview
     id="namedview1"
     pagecolor="#ffffff"
     bordercolor="#000000"
     borderopacity="0.25"
     inkscape:showpageshadow="2"
     inkscape:pageopacity="0.0"
     inkscape:pagecheckerboard="0"
     inkscape:deskcolor="#d1d1d1"
     inkscape:zoom="0.67272727"
     inkscape:cx="439.25676"
     inkscape:cy="440"
     inkscape:window-width="1440"
     inkscape:window-height="830"
     inkscape:window-x="-6"
     inkscape:window-y="-6"
     inkscape:window-maximized="1"
     inkscape:current-layer="g1">
    <inkscape:page
       x="0"
       y="0"
       inkscape:label="1"
       id="page1"
       width="880"
       height="880"
       margin="93.891869 226.444 9.5693331 260.47867"
       bleed="0" />
  </sodipodi:namedview>
  <g
     id="g1"
     inkscape:groupmode="layer"
     inkscape:label="1">
    <g
       id="group-MC0">
      <path
         id="path2"
         d="m 0,0 c 81.187,0 147.403,24.111 147.403,53.675 0,29.561 -66.216,53.673 -147.403,53.673 -81.187,0 -147.404,-24.112 -147.404,-53.673 C -147.404,24.111 -81.187,0 0,0"
         style="fill:#f5f6f6;fill-opacity:1;fill-rule:evenodd;stroke:none"
         transform="matrix(1.3333333,0,0,-1.3333333,457.01827,786.10813)"
         clip-path="url(#clipPath3)" />
      <path
         id="path4"
         d="m 0,0 c 1.299,-7.895 4.719,-9.393 4.719,-17.524 0,-4.957 2.932,-4.667 3.014,-11.022 0.004,-0.287 3.058,-2.328 2.793,6.314 -0.047,1.518 2.42,4.375 2.42,-2.715 0,-2.602 -0.121,-5.199 -0.121,-7.724 4.102,0 5.377,7.859 6.011,11.654 1.42,8.516 -3.622,9.192 -7.832,15.82 C 10.035,-3.674 4.477,6.828 3.488,3.246 2.161,-1.566 1.819,0.127 -0.021,0.262 Z"
         style="fill:#f28f62;fill-opacity:1;fill-rule:evenodd;stroke:none"
         transform="matrix(1.3333333,0,0,-1.3333333,571.1068,519.4388)"
         clip-path="url(#clipPath5)" />
      <path
         id="path6"
         d="m 0,0 c -1.047,-13.904 -7.315,-24.35 -7.402,-25.973 -0.581,-10.87 13.002,-8.902 21.946,-13.109 3.538,-1.665 19.067,-6.172 22.341,-3.936 3.851,2.634 4.039,11.483 -4.841,13.553 -1.931,0.45 -18.122,15.093 -19.339,16.519 C 9.874,-9.63 2.984,-1.477 0,0 m -109.384,6.051 c -5.048,-5.121 -6.842,-11.484 -15.27,-19.972 -7.32,-7.373 -3.841,-18.465 3.595,-23.005 9.186,-5.608 11.727,4.913 14.036,12.626 3.133,10.466 13.29,26.31 -1.387,30.441 z"
         style="fill:#54c6c8;fill-opacity:1;fill-rule:evenodd;stroke:none"
         transform="matrix(1.3333333,0,0,-1.3333333,520.44667,680.2904)"
         clip-path="url(#clipPath7)" />
      <path
         id="path8"
         d="m 0,0 c -8.036,12.664 4.926,24.092 -4.477,34.869 -5.369,6.151 -6.77,13.346 -15.246,-2.966 -5.492,-10.57 -2.198,-13.93 2.482,-24.138 2.369,-5.166 4.218,0.491 6.713,-11.312 0.795,-3.756 3.436,-12.4 6.957,-4.197 C -1.291,-2.428 -0.687,-4.837 0,0"
         style="fill:#f28f62;fill-opacity:1;fill-rule:evenodd;stroke:none"
         transform="matrix(1.3333333,0,0,-1.3333333,396.21613,269.85547)"
         clip-path="url(#clipPath9)" />
      <path
         id="path10"
         d="m 0,0 c -11.601,-10.93 -46.238,-92.694 -47.858,-126.603 -0.866,-18.11 12.815,-20.8 20.325,-7.756 7.08,12.299 14.382,34.095 25.546,52.599 9.122,15.117 10.148,20.304 14.801,27.539 12.043,18.727 18.731,20.87 29.25,-29.223 5.979,-28.487 5.29,-47.302 14.74,-59.729 1.917,-2.52 4.251,-4.779 7.139,-6.802 3.725,-2.606 8.317,-2.832 12.28,-0.604 3.962,2.227 6.155,6.268 5.866,10.804 -3.505,54.966 3.952,58.257 -28.339,127.489 C 50.692,-5.73 44.397,13.7 39.451,17.099 Z"
         style="fill:#f39c0f;fill-opacity:1;fill-rule:evenodd;stroke:none"
         transform="matrix(1.3333333,0,0,-1.3333333,432.332,502.84507)"
         clip-path="url(#clipPath11)" />
      <path
         id="path12"
         d="m 0,0 c 6.684,-5.2 11.331,-12.973 14.849,-20.395 4.826,-10.181 11.414,-64.729 16.583,-68.197 0.182,-0.122 3.805,-10.079 8.143,-16.418 -2.397,-0.066 -4.789,0.646 -6.901,2.122 -2.889,2.023 -5.223,4.282 -7.14,6.802 -9.449,12.427 -8.761,31.242 -14.74,59.729 C 6.811,-17.399 3.38,-5.927 0,0 m -8.282,4.556 10e-4,0.005 0.006,-0.003 z M -31.27,47.087 C -42.251,36.74 -73.868,-37.068 -78.589,-73.686 c 3.045,2.722 5.266,5.734 6.255,9.104 3.735,12.758 9.196,23.134 12.017,38.282 2.702,14.521 20.895,53.251 35.178,58.275 8.681,3.053 29.726,5.967 22.855,23.815 -0.413,1.076 -0.968,2.124 -1.641,3.149 z"
         style="fill:#df8c16;fill-opacity:1;fill-rule:evenodd;stroke:none"
         transform="matrix(1.3333333,0,0,-1.3333333,474.0248,565.6276)"
         clip-path="url(#clipPath13)" />
      <path
         id="path14"
         d="m 0,0 c -8.228,-42.924 2.707,-50.431 32.195,-47.592 16.969,1.634 19.886,36.368 9.01,41.892 C 18.839,5.659 26.087,4.426 0,0"
         style="fill:#2f2825;fill-opacity:1;fill-rule:evenodd;stroke:none"
         transform="matrix(1.3333333,0,0,-1.3333333,443.05853,467.28387)"
         clip-path="url(#clipPath15)" />
      <path
         id="path16"
         d="m 0,0 c -9.848,-5.512 -34.865,-3.189 -44.919,6.309 -14.945,14.114 -5.208,30.154 -11.147,64.14 -2.896,16.568 -19.77,44.945 -26.413,62.659 -3.562,9.504 -13.059,30.141 -11.017,42.049 1.937,11.288 8.97,17.614 23.167,3.801 6.785,-6.603 13.878,-44.601 26.179,-57.423 C -13.433,89.512 26.757,107.467 34.305,68.172 36.729,55.551 33.451,61.568 39.125,40.029 44.608,19.211 55.561,6.999 59.065,1.538 62.045,-3.109 57.543,-15.206 49.941,-13.091 43.136,-11.196 21.93,-0.645 20.005,15.023 18.351,28.479 13.819,33.652 13.255,29.22 12.053,19.766 6.773,3.79 0,0"
         style="fill:#54c6c8;fill-opacity:1;fill-rule:evenodd;stroke:none"
         transform="matrix(1.3333333,0,0,-1.3333333,505.54813,516.0352)"
         clip-path="url(#clipPath17)" />
      <path
         id="path18"
         d="M 0,0 -0.005,-0.045 C -0.004,-0.028 -0.003,-0.013 0,0 m -66.665,-5.677 c -1.398,11.177 1.09,25.473 -2.656,46.906 -2.896,16.568 -19.77,44.945 -26.413,62.66 -1.544,4.121 -4.205,10.336 -6.557,17.025 4.98,-8.763 7.055,-13.553 17.507,-23.417 3.784,-3.571 10.489,-39.428 15.527,-36.063 5.536,3.701 -2.381,21.582 7.461,8.091 8.968,-12.295 -2.6,-29.239 -2.6,-47.01 0,-3.245 -1.025,-18.798 -2.269,-28.192 M 45.378,-37.203 c -1.671,-3.503 -4.767,-6.199 -8.692,-5.108 C 29.881,-40.416 8.675,-29.864 6.749,-14.195 5.233,-1.864 1.303,3.508 0.222,0.909 1.524,6.001 2.695,5.884 3.364,13.401 3.446,14.319 4.478,25.6 4.605,25.811 4.704,25.823 5.749,11.089 9.837,1.38 c 4.992,-11.863 3.779,-18.828 12.099,-29.735 7.087,-9.291 16.674,-9.457 23.442,-8.848"
         style="fill:#41a6ac;fill-opacity:1;fill-rule:evenodd;stroke:none"
         transform="matrix(1.3333333,0,0,-1.3333333,523.22133,477.07547)"
         clip-path="url(#clipPath19)" />
      <path
         id="path20"
         d="m 0,0 c -3.365,7.153 4.132,15.717 -7.89,21.971 -4.811,2.503 -2.275,24.941 -1.361,29.868 1.831,9.881 2.347,23.504 16.573,19.955 2.204,-0.55 2.925,-4.001 8.304,-6.588 C 24.66,60.859 29.471,48.048 27.582,37.79 26.359,31.145 23.242,20.227 18.33,15.502 14.425,11.746 16.357,-5.964 9.771,-5.964 6.9,-5.964 -1.297,-2.08 0,0"
         style="fill:#f28f62;fill-opacity:1;fill-rule:evenodd;stroke:none"
         transform="matrix(1.3333333,0,0,-1.3333333,484.00907,385.48693)"
         clip-path="url(#clipPath21)" />
      <path
         id="path22"
         d="m 0,0 c -1.427,5.17 -0.97,21.725 7.671,22.762 5.706,0.686 3.329,0.896 8.601,-2.33 2.137,-1.307 10.923,-9.011 11.911,-11.332 2.42,-5.696 14.951,-4.38 11.431,-10.78 -3.818,-6.944 4.947,-9.11 1.01,-21.624 -1.831,-5.82 -6.334,-15.33 -12.716,-16.754 -1.754,-0.392 -0.853,0.766 -0.887,4.169 -0.093,9.172 3.906,14.184 -4.699,20.474 C 10.121,-6.497 21.14,2.566 9.002,2.566 3.808,2.566 0.868,-0.585 0.179,-0.249 0,-0.162 0.055,-0.2 0,0"
         style="fill:#2f2825;fill-opacity:1;fill-rule:evenodd;stroke:none"
         transform="matrix(1.3333333,0,0,-1.3333333,472.71747,310.222)"
         clip-path="url(#clipPath23)" />
      <path
         id="path24"
         d="m 0,0 c 3.198,0 5.287,-3.526 4.666,-7.875 -0.62,-4.351 -3.717,-7.876 -6.915,-7.876 -3.2,0 -5.29,3.525 -4.668,7.876 C -6.297,-3.526 -3.2,0 0,0"
         style="fill:#f28f62;fill-opacity:1;fill-rule:evenodd;stroke:none"
         transform="matrix(1.3333333,0,0,-1.3333333,510.0404,328.33987)"
         clip-path="url(#clipPath25)" />
      <path
         id="path26"
         d="m 0,0 9.878,-9.276 -21.534,-22.934 -9.879,9.276 z"
         style="fill:#463d3b;fill-opacity:1;fill-rule:evenodd;stroke:none"
         transform="matrix(1.3333333,0,0,-1.3333333,429.56773,147.7852)"
         clip-path="url(#clipPath27)" />
      <path
         id="path28"
         d="m 0,0 c 25.917,-24.336 27.199,-65.074 2.863,-90.991 -24.336,-25.917 -65.074,-27.199 -90.991,-2.863 -25.916,24.336 -27.199,65.074 -2.863,90.991 C -66.654,23.055 -25.917,24.336 0,0"
         style="fill:#463d3b;fill-opacity:1;fill-rule:evenodd;stroke:none"
         transform="matrix(1.3333333,0,0,-1.3333333,549.9024,32.830133)"
         clip-path="url(#clipPath29)" />
      <path
         id="path30"
         d="m 0,0 c 19.193,-18.024 20.143,-48.194 2.12,-67.388 -18.023,-19.195 -48.194,-20.144 -67.389,-2.12 -19.193,18.023 -20.142,48.193 -2.12,67.388 C -49.365,17.073 -19.194,18.022 0,0"
         style="fill:#54c6c8;fill-opacity:1;fill-rule:evenodd;stroke:none"
         transform="matrix(1.3333333,0,0,-1.3333333,534.6628,49.059867)"
         clip-path="url(#clipPath31)" />
      <path
         id="path32"
         d="m 0,0 0.003,-0.001 c 6.402,-6.013 6.723,-16.173 0.709,-22.576 l -71.895,-76.566 c -6.012,-6.404 -16.172,-6.723 -22.576,-0.71 h -0.001 c -6.404,6.014 -6.723,16.173 -0.71,22.577 l 71.895,76.565 C -16.562,5.693 -6.402,6.013 0,0"
         style="fill:#463d3b;fill-opacity:1;fill-rule:evenodd;stroke:none"
         transform="matrix(1.3333333,0,0,-1.3333333,422.8984,168.082)"
         clip-path="url(#clipPath33)" />
      <path
         id="path34"
         d="M 0,0 C -5.631,3.814 -2.875,13.439 -7.718,10.785 -11.153,8.904 -6.713,-8.358 -5.256,-8.311 -0.298,-8.154 -0.999,-2.245 0,0"
         style="fill:#f28f62;fill-opacity:1;fill-rule:evenodd;stroke:none"
         transform="matrix(1.3333333,0,0,-1.3333333,394.07227,229.8952)"
         clip-path="url(#clipPath35)" />
      <path
         id="path36"
         d="m 0,0 c 11.817,-9.293 12.401,-24.848 1.306,-34.744 -11.098,-9.896 -29.674,-10.385 -41.492,-1.092 -11.818,9.292 -12.402,24.847 -1.305,34.743 C -30.395,8.802 -11.818,9.292 0,0"
         style="fill:#6acdd4;fill-opacity:1;fill-rule:evenodd;stroke:none"
         transform="matrix(1.3333333,0,0,-1.3333333,517.94147,44.679067)"
         clip-path="url(#clipPath37)" />
    </g>
  </g>
</svg>
